<svg version="1.1" id="Layer_1" xmlns="http://www.w3.org/2000/svg" xmlns:xlink="http://www.w3.org/1999/xlink" x="0px" y="0px"
	 width="100%" viewBox="0 0 500 500" enable-background="new 0 0 500 500" xml:space="preserve">
<path fill="#010000" opacity="1.000000" stroke="none" 
	d="
M282.000000,501.000000 
	C188.000015,501.000000 94.500046,501.000000 1.000050,501.000000 
	C1.000033,334.333405 1.000033,167.666794 1.000017,1.000140 
	C167.666565,1.000093 334.333130,1.000093 500.999756,1.000046 
	C500.999847,167.666519 500.999847,334.333038 500.999939,500.999786 
	C428.166656,501.000000 355.333344,501.000000 282.000000,501.000000 
M237.800583,195.944046 
	C232.905258,211.098572 228.009949,226.253082 223.114639,241.407593 
	C222.677277,241.392853 222.239929,241.378098 221.802582,241.363358 
	C221.223206,239.704086 220.576477,238.064896 220.075241,236.382355 
	C216.465561,224.265396 212.977829,212.110657 209.192734,200.049072 
	C208.646591,198.308731 206.813522,195.818253 205.408600,195.702271 
	C199.499527,195.214401 193.526901,195.496063 187.264297,195.496063 
	C187.264297,227.276749 187.264297,258.430420 187.264297,289.947998 
	C191.114517,289.947998 194.432236,289.805725 197.732513,289.984924 
	C201.628387,290.196503 202.879456,288.628815 202.832550,284.700409 
	C202.641647,268.707642 202.757217,252.711121 202.784531,236.716019 
	C202.787384,235.041779 202.953522,233.367798 203.043900,231.693695 
	C204.271622,232.516418 204.667908,233.377441 204.959137,234.272659 
	C209.180878,247.250656 213.491623,260.201294 217.526642,273.237274 
	C218.527725,276.471497 219.964111,277.765717 223.460358,277.736359 
	C226.811539,277.708191 227.635849,275.919250 228.421432,273.339722 
	C231.476089,263.309692 234.619614,253.306458 237.782394,243.309814 
	C238.840988,239.963943 240.055893,236.667557 241.199326,233.348541 
	C242.196136,234.908279 242.331390,236.215805 242.332886,237.523499 
	C242.348312,251.019363 242.219864,264.516693 242.376953,278.010742 
	C242.528976,291.069885 239.651184,289.410339 254.571960,289.572906 
	C257.465088,289.604462 258.757538,288.484619 258.749634,285.427277 
	C258.675659,256.769592 258.673340,228.111649 258.716034,199.453888 
	C258.720520,196.432922 257.440094,195.253769 254.507553,195.332352 
	C249.182251,195.475037 243.853439,195.487000 237.800583,195.944046 
M418.836700,257.528076 
	C420.229004,250.802200 421.621338,244.076309 423.013641,237.350418 
	C424.314392,238.596695 424.726227,239.800140 424.975037,241.036392 
	C428.321930,257.667847 431.596283,274.314240 435.062225,290.920715 
	C435.369110,292.391022 436.748138,294.599976 437.871063,294.759064 
	C441.397491,295.258759 445.039459,294.942963 448.635437,294.942963 
	C454.167877,261.627808 459.606812,228.875488 465.166321,195.397293 
	C460.945679,195.397293 457.466522,195.571014 454.012756,195.349289 
	C450.428314,195.119202 449.169128,196.501358 448.721497,200.112259 
	C446.858337,215.141724 444.655853,230.129456 442.524994,245.124969 
	C442.247009,247.080917 441.662048,248.993240 441.219269,250.925751 
	C439.885559,249.635391 439.516388,248.541061 439.312103,247.416763 
	C436.486847,231.868851 433.542786,216.340195 430.965637,200.750992 
	C430.227386,196.285248 428.116882,195.114685 423.945770,195.265778 
	C419.986145,195.409210 416.576019,194.907913 415.838440,200.537445 
	C414.607208,209.934631 412.634705,219.236481 410.911011,228.566788 
	C409.657837,235.350372 408.302704,242.115112 406.993011,248.888260 
	C405.671143,247.661438 405.172272,246.468674 404.976135,245.228043 
	C402.845734,231.753342 400.870148,218.253281 398.633026,204.796585 
	C396.824280,193.916641 398.452423,195.755875 387.731354,195.313263 
	C383.401581,195.134491 382.184479,196.539078 382.900513,200.816360 
	C387.431885,227.884430 391.639526,255.007263 396.272888,282.057404 
	C398.306396,293.929077 398.647614,293.873352 410.702454,292.960968 
	C411.008179,292.937836 411.296692,292.686920 411.914825,292.385254 
	C414.157318,281.188202 416.442230,269.779297 418.836700,257.528076 
M317.190979,195.432236 
	C315.357941,195.422470 313.494293,195.623672 311.697754,195.362640 
	C306.679779,194.633530 305.603363,196.931946 305.724121,201.569122 
	C306.087280,215.513016 306.029419,229.468384 306.056763,243.419449 
	C306.058868,244.497589 305.444977,245.576935 305.117401,246.655731 
	C299.172058,232.817368 294.265686,219.073196 289.533783,205.269226 
	C286.063690,195.146179 286.165222,195.268204 275.454224,195.239929 
	C271.339447,195.229080 269.954987,196.612335 269.979614,200.739532 
	C270.134735,226.734787 270.061523,252.731323 270.111084,278.727325 
	C270.135590,291.583313 268.435272,289.346008 281.305511,289.989990 
	C284.945160,290.172119 286.278687,288.882874 286.223969,285.119385 
	C286.035034,272.123413 286.136780,259.123047 286.163910,246.124435 
	C286.167511,244.396072 286.379120,242.668137 286.494415,240.940002 
	C286.915039,240.864578 287.335663,240.789154 287.756287,240.713715 
	C288.310303,241.954971 288.955475,243.164200 289.404297,244.442398 
	C294.197174,258.091248 298.907959,271.769318 303.793945,285.384583 
	C304.403442,287.082977 305.769745,289.653442 307.000549,289.783478 
	C311.844025,290.295197 316.773529,289.993164 322.090668,289.993164 
	C322.090668,276.139008 322.110016,263.026398 322.085785,249.913879 
	C322.055084,233.307831 321.953400,216.701813 321.972504,200.095901 
	C321.975739,197.277176 321.751648,195.022461 317.190979,195.432236 
M96.069077,253.562561 
	C96.069077,266.205658 96.069077,278.848724 96.069077,291.579895 
	C101.832329,291.579895 107.163918,291.579895 112.837402,291.579895 
	C112.837402,289.216095 112.836182,287.569458 112.837616,285.922791 
	C112.846756,275.427551 112.776428,264.930939 112.957108,254.438629 
	C112.982567,252.960068 114.092995,250.338379 114.943924,250.234543 
	C118.882591,249.753891 122.937683,249.701782 126.878281,250.144287 
	C127.823700,250.250458 129.130478,252.815979 129.177979,254.285751 
	C129.420029,261.774811 129.305161,269.275452 129.311386,276.772034 
	C129.315201,281.380127 129.312088,285.988220 129.312088,291.032684 
	C133.145432,291.032684 136.306702,290.802917 139.421341,291.086029 
	C144.209351,291.521210 145.683319,289.644531 145.648514,284.844666 
	C145.458893,258.691376 145.614990,232.535736 145.583542,206.380997 
	C145.568329,193.730255 146.534821,195.685364 134.634796,195.361389 
	C130.420898,195.246658 129.125748,196.770752 129.229401,200.877579 
	C129.468933,210.367249 129.447113,219.871017 129.175400,229.358871 
	C129.129120,230.975128 127.478149,233.753143 126.291023,233.911285 
	C122.082634,234.471848 117.754021,234.129868 113.110138,234.129868 
	C113.010750,231.878220 112.868858,230.093170 112.863693,228.307709 
	C112.836220,218.812057 112.813095,209.316193 112.858986,199.820724 
	C112.870438,197.451477 112.725082,195.419617 109.602562,195.438736 
	C105.300766,195.465073 100.998688,195.445328 96.070122,195.445328 
	C96.070122,214.878891 96.070122,233.734711 96.069077,253.562561 
M54.159176,266.507141 
	C54.159302,266.174164 54.159412,265.841187 54.159557,265.508209 
	C54.163879,255.572495 54.163876,255.572510 64.067085,254.422089 
	C76.644371,252.961060 84.661545,246.887711 86.268463,235.812759 
	C87.326447,228.520966 87.139458,220.838501 86.154945,213.513077 
	C84.900925,204.182281 78.902344,198.057144 69.410934,196.861404 
	C61.038792,195.806686 52.517136,195.985092 44.074337,195.425323 
	C39.828587,195.143829 38.306953,196.530823 38.333630,201.044464 
	C38.510738,231.011795 38.398418,260.980804 38.402077,290.949280 
	C38.402233,292.219940 38.617741,293.490631 38.751400,294.965118 
	C42.704395,294.965118 46.337402,294.840210 49.957645,295.001648 
	C53.304264,295.150879 54.248150,293.560974 54.199451,290.479553 
	C54.078430,282.822845 54.159092,275.162964 54.159176,266.507141 
M333.837067,210.850479 
	C333.846008,235.672302 333.929443,260.494537 333.788696,285.315521 
	C333.765930,289.329620 334.845306,290.928375 339.079102,290.897461 
	C348.069397,290.831787 357.063110,291.246429 366.055573,291.458984 
	C375.943146,291.692719 375.435730,293.778137 375.515869,282.538971 
	C375.562439,276.006500 375.505524,276.007477 368.877747,275.892639 
	C366.712433,275.855133 364.546753,275.826172 362.382111,275.762878 
	C349.792603,275.394836 349.792694,275.391785 349.779388,263.029968 
	C349.778687,262.363617 349.778198,261.697235 349.777405,261.030884 
	C349.764648,250.109772 349.764618,250.118195 360.468414,250.153198 
	C373.902924,250.197128 370.968353,251.152466 371.510651,238.895172 
	C371.658752,235.547806 370.348450,234.461945 367.167816,234.542465 
	C361.570282,234.684174 355.966583,234.582077 350.221313,234.582077 
	C350.221313,226.277420 350.221313,218.919815 350.221313,211.017151 
	C355.143127,211.017151 359.611115,211.040192 364.078796,211.012711 
	C376.155884,210.938431 374.418762,212.940598 374.746857,199.945679 
	C374.826355,196.796722 373.706543,195.348495 370.446198,195.369370 
	C359.618439,195.438705 348.789673,195.420609 337.961823,195.351562 
	C335.071259,195.333130 333.663147,196.339813 333.818573,199.442429 
	C333.993317,202.931458 333.845520,206.436676 333.837067,210.850479 
M174.549835,229.500305 
	C174.556427,221.684525 174.631241,213.868042 174.553406,206.053116 
	C174.440735,194.738922 176.236115,195.612625 163.772293,195.354523 
	C159.174240,195.259323 157.718369,196.698746 157.751205,201.331589 
	C157.934982,227.270432 157.804459,253.211334 157.839828,279.151428 
	C157.857269,291.937958 156.031982,289.859406 168.952637,290.245148 
	C173.350800,290.376434 174.683456,288.670837 174.638779,284.378448 
	C174.451813,266.420685 174.554581,248.459961 174.549835,229.500305 
z"/>
<path fill="#DB0F12" opacity="1.000000" stroke="none" 
	d="
M238.163330,195.748779 
	C243.853439,195.487000 249.182251,195.475037 254.507553,195.332352 
	C257.440094,195.253769 258.720520,196.432922 258.716034,199.453888 
	C258.673340,228.111649 258.675659,256.769592 258.749634,285.427277 
	C258.757538,288.484619 257.465088,289.604462 254.571960,289.572906 
	C239.651184,289.410339 242.528976,291.069885 242.376953,278.010742 
	C242.219864,264.516693 242.348312,251.019363 242.332886,237.523499 
	C242.331390,236.215805 242.196136,234.908279 241.199326,233.348541 
	C240.055893,236.667557 238.840988,239.963943 237.782394,243.309814 
	C234.619614,253.306458 231.476089,263.309692 228.421432,273.339722 
	C227.635849,275.919250 226.811539,277.708191 223.460358,277.736359 
	C219.964111,277.765717 218.527725,276.471497 217.526642,273.237274 
	C213.491623,260.201294 209.180878,247.250656 204.959137,234.272659 
	C204.667908,233.377441 204.271622,232.516418 203.043900,231.693695 
	C202.953522,233.367798 202.787384,235.041779 202.784531,236.716019 
	C202.757217,252.711121 202.641647,268.707642 202.832550,284.700409 
	C202.879456,288.628815 201.628387,290.196503 197.732513,289.984924 
	C194.432236,289.805725 191.114517,289.947998 187.264297,289.947998 
	C187.264297,258.430420 187.264297,227.276749 187.264297,195.496063 
	C193.526901,195.496063 199.499527,195.214401 205.408600,195.702271 
	C206.813522,195.818253 208.646591,198.308731 209.192734,200.049072 
	C212.977829,212.110657 216.465561,224.265396 220.075241,236.382355 
	C220.576477,238.064896 221.223206,239.704086 221.802582,241.363358 
	C222.239929,241.378098 222.677277,241.392853 223.114639,241.407593 
	C228.009949,226.253082 232.905258,211.098572 238.163330,195.748779 
z"/>
<path fill="#DB1012" opacity="1.000000" stroke="none" 
	d="
M418.781921,257.949219 
	C416.442230,269.779297 414.157318,281.188202 411.914825,292.385254 
	C411.296692,292.686920 411.008179,292.937836 410.702454,292.960968 
	C398.647614,293.873352 398.306396,293.929077 396.272888,282.057404 
	C391.639526,255.007263 387.431885,227.884430 382.900513,200.816360 
	C382.184479,196.539078 383.401581,195.134491 387.731354,195.313263 
	C398.452423,195.755875 396.824280,193.916641 398.633026,204.796585 
	C400.870148,218.253281 402.845734,231.753342 404.976135,245.228043 
	C405.172272,246.468674 405.671143,247.661438 406.993011,248.888260 
	C408.302704,242.115112 409.657837,235.350372 410.911011,228.566788 
	C412.634705,219.236481 414.607208,209.934631 415.838440,200.537445 
	C416.576019,194.907913 419.986145,195.409210 423.945770,195.265778 
	C428.116882,195.114685 430.227386,196.285248 430.965637,200.750992 
	C433.542786,216.340195 436.486847,231.868851 439.312103,247.416763 
	C439.516388,248.541061 439.885559,249.635391 441.219269,250.925751 
	C441.662048,248.993240 442.247009,247.080917 442.524994,245.124969 
	C444.655853,230.129456 446.858337,215.141724 448.721497,200.112259 
	C449.169128,196.501358 450.428314,195.119202 454.012756,195.349289 
	C457.466522,195.571014 460.945679,195.397293 465.166321,195.397293 
	C459.606812,228.875488 454.167877,261.627808 448.635437,294.942963 
	C445.039459,294.942963 441.397491,295.258759 437.871063,294.759064 
	C436.748138,294.599976 435.369110,292.391022 435.062225,290.920715 
	C431.596283,274.314240 428.321930,257.667847 424.975037,241.036392 
	C424.726227,239.800140 424.314392,238.596695 423.013641,237.350418 
	C421.621338,244.076309 420.229004,250.802200 418.781921,257.949219 
z"/>
<path fill="#DB1013" opacity="1.000000" stroke="none" 
	d="
M317.638458,195.438263 
	C321.751648,195.022461 321.975739,197.277176 321.972504,200.095901 
	C321.953400,216.701813 322.055084,233.307831 322.085785,249.913879 
	C322.110016,263.026398 322.090668,276.139008 322.090668,289.993164 
	C316.773529,289.993164 311.844025,290.295197 307.000549,289.783478 
	C305.769745,289.653442 304.403442,287.082977 303.793945,285.384583 
	C298.907959,271.769318 294.197174,258.091248 289.404297,244.442398 
	C288.955475,243.164200 288.310303,241.954971 287.756287,240.713715 
	C287.335663,240.789154 286.915039,240.864578 286.494415,240.940002 
	C286.379120,242.668137 286.167511,244.396072 286.163910,246.124435 
	C286.136780,259.123047 286.035034,272.123413 286.223969,285.119385 
	C286.278687,288.882874 284.945160,290.172119 281.305511,289.989990 
	C268.435272,289.346008 270.135590,291.583313 270.111084,278.727325 
	C270.061523,252.731323 270.134735,226.734787 269.979614,200.739532 
	C269.954987,196.612335 271.339447,195.229080 275.454224,195.239929 
	C286.165222,195.268204 286.063690,195.146179 289.533783,205.269226 
	C294.265686,219.073196 299.172058,232.817368 305.117401,246.655731 
	C305.444977,245.576935 306.058868,244.497589 306.056763,243.419449 
	C306.029419,229.468384 306.087280,215.513016 305.724121,201.569122 
	C305.603363,196.931946 306.679779,194.633530 311.697754,195.362640 
	C313.494293,195.623672 315.357941,195.422470 317.638458,195.438263 
z"/>
<path fill="#DA0F12" opacity="1.000000" stroke="none" 
	d="
M96.069595,253.076553 
	C96.070122,233.734711 96.070122,214.878891 96.070122,195.445328 
	C100.998688,195.445328 105.300766,195.465073 109.602562,195.438736 
	C112.725082,195.419617 112.870438,197.451477 112.858986,199.820724 
	C112.813095,209.316193 112.836220,218.812057 112.863693,228.307709 
	C112.868858,230.093170 113.010750,231.878220 113.110138,234.129868 
	C117.754021,234.129868 122.082634,234.471848 126.291023,233.911285 
	C127.478149,233.753143 129.129120,230.975128 129.175400,229.358871 
	C129.447113,219.871017 129.468933,210.367249 129.229401,200.877579 
	C129.125748,196.770752 130.420898,195.246658 134.634796,195.361389 
	C146.534821,195.685364 145.568329,193.730255 145.583542,206.380997 
	C145.614990,232.535736 145.458893,258.691376 145.648514,284.844666 
	C145.683319,289.644531 144.209351,291.521210 139.421341,291.086029 
	C136.306702,290.802917 133.145432,291.032684 129.312088,291.032684 
	C129.312088,285.988220 129.315201,281.380127 129.311386,276.772034 
	C129.305161,269.275452 129.420029,261.774811 129.177979,254.285751 
	C129.130478,252.815979 127.823700,250.250458 126.878281,250.144287 
	C122.937683,249.701782 118.882591,249.753891 114.943924,250.234543 
	C114.092995,250.338379 112.982567,252.960068 112.957108,254.438629 
	C112.776428,264.930939 112.846756,275.427551 112.837616,285.922791 
	C112.836182,287.569458 112.837402,289.216095 112.837402,291.579895 
	C107.163918,291.579895 101.832329,291.579895 96.069077,291.579895 
	C96.069077,278.848724 96.069077,266.205658 96.069595,253.076553 
z"/>
<path fill="#DB1012" opacity="1.000000" stroke="none" 
	d="
M54.158966,267.005737 
	C54.159092,275.162964 54.078430,282.822845 54.199451,290.479553 
	C54.248150,293.560974 53.304264,295.150879 49.957645,295.001648 
	C46.337402,294.840210 42.704395,294.965118 38.751400,294.965118 
	C38.617741,293.490631 38.402233,292.219940 38.402077,290.949280 
	C38.398418,260.980804 38.510738,231.011795 38.333630,201.044464 
	C38.306953,196.530823 39.828587,195.143829 44.074337,195.425323 
	C52.517136,195.985092 61.038792,195.806686 69.410934,196.861404 
	C78.902344,198.057144 84.900925,204.182281 86.154945,213.513077 
	C87.139458,220.838501 87.326447,228.520966 86.268463,235.812759 
	C84.661545,246.887711 76.644371,252.961060 64.067085,254.422089 
	C54.163876,255.572510 54.163879,255.572495 54.159557,265.508209 
	C54.159412,265.841187 54.159302,266.174164 54.158966,267.005737 
M57.556324,210.319199 
	C56.417610,211.535690 54.349274,212.711182 54.293514,213.975449 
	C53.971100,221.285889 54.059803,228.618332 54.183178,235.940414 
	C54.201939,237.053696 54.832642,238.690002 55.687439,239.157883 
	C58.476814,240.684692 66.527855,238.366470 68.403709,235.449249 
	C72.225464,229.505936 71.642242,222.999557 69.722878,216.693314 
	C68.075890,211.281998 63.200722,210.634415 57.556324,210.319199 
z"/>
<path fill="#DB1013" opacity="1.000000" stroke="none" 
	d="
M333.837585,210.392670 
	C333.845520,206.436676 333.993317,202.931458 333.818573,199.442429 
	C333.663147,196.339813 335.071259,195.333130 337.961823,195.351562 
	C348.789673,195.420609 359.618439,195.438705 370.446198,195.369370 
	C373.706543,195.348495 374.826355,196.796722 374.746857,199.945679 
	C374.418762,212.940598 376.155884,210.938431 364.078796,211.012711 
	C359.611115,211.040192 355.143127,211.017151 350.221313,211.017151 
	C350.221313,218.919815 350.221313,226.277420 350.221313,234.582077 
	C355.966583,234.582077 361.570282,234.684174 367.167816,234.542465 
	C370.348450,234.461945 371.658752,235.547806 371.510651,238.895172 
	C370.968353,251.152466 373.902924,250.197128 360.468414,250.153198 
	C349.764618,250.118195 349.764648,250.109772 349.777405,261.030884 
	C349.778198,261.697235 349.778687,262.363617 349.779388,263.029968 
	C349.792694,275.391785 349.792603,275.394836 362.382111,275.762878 
	C364.546753,275.826172 366.712433,275.855133 368.877747,275.892639 
	C375.505524,276.007477 375.562439,276.006500 375.515869,282.538971 
	C375.435730,293.778137 375.943146,291.692719 366.055573,291.458984 
	C357.063110,291.246429 348.069397,290.831787 339.079102,290.897461 
	C334.845306,290.928375 333.765930,289.329620 333.788696,285.315521 
	C333.929443,260.494537 333.846008,235.672302 333.837585,210.392670 
z"/>
<path fill="#D91113" opacity="1.000000" stroke="none" 
	d="
M174.550507,230.000305 
	C174.554581,248.459961 174.451813,266.420685 174.638779,284.378448 
	C174.683456,288.670837 173.350800,290.376434 168.952637,290.245148 
	C156.031982,289.859406 157.857269,291.937958 157.839828,279.151428 
	C157.804459,253.211334 157.934982,227.270432 157.751205,201.331589 
	C157.718369,196.698746 159.174240,195.259323 163.772293,195.354523 
	C176.236115,195.612625 174.440735,194.738922 174.553406,206.053116 
	C174.631241,213.868042 174.556427,221.684525 174.550507,230.000305 
z"/>
<path fill="#0A0000" opacity="1.000000" stroke="none" 
	d="
M57.968452,210.344894 
	C63.200722,210.634415 68.075890,211.281998 69.722878,216.693314 
	C71.642242,222.999557 72.225464,229.505936 68.403709,235.449249 
	C66.527855,238.366470 58.476814,240.684692 55.687439,239.157883 
	C54.832642,238.690002 54.201939,237.053696 54.183178,235.940414 
	C54.059803,228.618332 53.971100,221.285889 54.293514,213.975449 
	C54.349274,212.711182 56.417610,211.535690 57.968452,210.344894 
z"/>
</svg>