<?xml version="1.0" standalone="no"?>
<!DOCTYPE svg PUBLIC "-//W3C//DTD SVG 20010904//EN"
 "http://www.w3.org/TR/2001/REC-SVG-20010904/DTD/svg10.dtd">
<svg version="1.0" xmlns="http://www.w3.org/2000/svg"
 width="500.000000pt" height="500.000000pt" viewBox="0 0 500.000000 500.000000"
 preserveAspectRatio="xMidYMid meet">

<g transform="translate(0.000000,500.000000) scale(0.100000,-0.100000)"
fill="#fb2c06" stroke="none">
<path d="M380 2561 l0 -501 53 0 c104 0 96 -15 99 209 l3 196 80 6 c113 8 165
38 221 124 16 26 19 49 19 165 0 128 -2 137 -26 175 -35 53 -55 70 -114 96
-42 19 -73 23 -192 27 l-143 5 0 -502z m288 315 c21 -20 26 -36 29 -98 6 -104
-13 -138 -86 -156 -29 -7 -60 -11 -67 -8 -11 4 -14 36 -14 152 l0 147 57 -6
c42 -4 63 -12 81 -31z"/>
<path d="M957 3053 c-4 -3 -7 -222 -7 -485 l0 -478 80 0 80 0 1 198 c1 108 1
203 0 210 -1 8 17 12 61 12 35 0 73 3 86 6 l22 6 0 -211 0 -211 80 0 80 0 0
480 0 481 -77 -3 -78 -3 -3 -192 -2 -193 -85 0 -85 0 0 195 0 195 -73 0 c-41
0 -77 -3 -80 -7z"/>
<path d="M1577 3053 c-4 -3 -7 -217 -7 -475 l0 -468 80 0 80 0 0 475 0 475
-73 0 c-41 0 -77 -3 -80 -7z"/>
<path d="M1867 3054 c-4 -4 -7 -218 -7 -476 l0 -468 80 0 80 0 2 308 3 307 28
-90 c16 -49 42 -130 58 -180 16 -49 34 -106 40 -125 26 -86 29 -90 70 -90 l38
0 36 118 c20 64 41 131 46 147 30 99 61 191 69 204 6 10 10 -99 10 -286 l0
-303 75 0 75 0 0 470 0 471 -102 -3 -101 -3 -24 -75 c-13 -41 -44 -147 -70
-235 -47 -165 -57 -190 -66 -159 -29 96 -111 371 -125 414 l-17 55 -96 3 c-52
1 -98 0 -102 -4z"/>
<path d="M2697 3053 c-4 -3 -7 -214 -7 -468 l0 -462 46 -7 c26 -3 62 -6 80 -6
l34 0 0 272 c0 263 5 300 28 218 6 -19 25 -73 42 -120 18 -47 36 -98 40 -115
8 -31 55 -164 70 -200 4 -11 11 -28 14 -37 4 -15 18 -18 86 -18 l80 0 0 475 0
475 -75 0 c-71 0 -75 -1 -75 -22 -1 -13 -1 -141 -1 -285 1 -235 -5 -300 -22
-245 -22 69 -147 425 -151 430 -3 3 -6 16 -6 28 0 13 -4 25 -9 28 -4 3 -11 19
-14 36 l-6 30 -74 0 c-41 0 -77 -3 -80 -7z"/>
<path d="M3337 3054 c-6 -7 -11 -942 -4 -946 1 -1 93 -4 205 -7 l202 -6 0 78
0 77 -109 0 c-60 0 -116 3 -125 6 -13 5 -16 26 -16 130 l0 124 105 0 105 0 0
75 0 75 -72 1 c-40 1 -86 2 -103 3 l-30 2 -3 117 -3 116 123 3 123 3 0 75 0
75 -196 3 c-107 1 -198 -1 -202 -4z"/>
<path d="M3820 3021 c0 -22 4 -61 9 -88 13 -64 27 -142 41 -228 6 -38 15 -92
20 -120 13 -73 80 -489 80 -498 0 -4 31 -7 68 -7 l68 0 12 63 c7 34 17 85 22
112 6 28 19 95 29 150 11 55 25 132 32 170 20 112 21 111 59 -70 5 -22 13 -60
18 -85 6 -25 16 -72 22 -105 6 -33 16 -78 20 -100 5 -22 14 -66 20 -97 l11
-58 63 0 62 0 13 83 c7 45 16 100 21 122 4 22 14 78 20 125 6 47 15 105 20
130 13 64 41 234 51 310 4 36 14 100 22 143 7 42 11 79 9 82 -6 6 -142 7 -142
1 0 -3 -14 -96 -30 -208 -17 -112 -35 -236 -41 -276 -17 -123 -23 -125 -42
-16 -27 151 -48 268 -71 389 l-21 110 -60 3 -61 3 -42 -243 c-24 -134 -49
-268 -55 -298 l-13 -55 -12 60 c-17 88 -49 286 -63 395 -18 143 -16 140 -94
140 l-65 0 0 -39z"/>
</g>
</svg>
