<?xml version="1.0" standalone="no"?>
<!DOCTYPE svg PUBLIC "-//W3C//DTD SVG 20010904//EN"
 "http://www.w3.org/TR/2001/REC-SVG-20010904/DTD/svg10.dtd">
<svg version="1.0" xmlns="http://www.w3.org/2000/svg"
 width="500.000000pt" height="300.000000pt" viewBox="0 0 500.000000 300.000000"
 preserveAspectRatio="xMidYMid meet">

<g transform="translate(0.000000,400.000000) scale(0.100000,-0.100000)"
fill="#e50914" stroke="none">
<path d="M3421 3123 l-39 -68 51 -3 c47 -3 54 -1 77 28 l26 32 25 -32 c22 -29
28 -31 76 -28 l53 3 -41 68 -40 67 -74 0 -74 0 -40 -67z"/>
<path d="M590 2509 l0 -482 53 7 c28 3 62 6 75 6 l22 0 0 184 c0 210 -7 196
98 196 92 0 166 46 203 125 27 57 27 262 0 320 -46 101 -106 125 -308 125
l-143 0 0 -481z m298 306 c19 -23 22 -37 22 -110 0 -74 -3 -87 -24 -112 -21
-24 -31 -27 -82 -28 l-59 0 -3 129 c-1 72 0 136 3 144 4 12 18 13 63 9 45 -5
62 -12 80 -32z"/>
<path d="M1150 2535 l0 -455 74 0 c58 0 75 3 80 16 3 9 6 96 6 195 l0 179 85
0 85 0 0 -185 0 -185 75 0 75 0 0 445 0 445 -75 0 -75 0 0 -185 0 -186 -86 3
-87 3 2 183 2 182 -80 0 -81 0 0 -455z"/>
<path d="M1760 2550 l0 -440 80 0 80 0 0 440 0 440 -80 0 -80 0 0 -440z"/>
<path d="M2040 2555 l0 -435 75 0 75 0 2 283 3 282 44 -155 c24 -85 53 -188
64 -227 l21 -73 43 0 c24 0 43 1 43 3 0 10 130 451 135 455 3 3 5 -123 5 -281
l0 -285 70 -4 70 -3 0 438 0 437 -94 0 c-81 0 -95 -2 -100 -17 -22 -75 -62
-217 -87 -313 -17 -63 -34 -119 -38 -123 -7 -7 -82 245 -122 406 l-11 47 -99
0 -99 0 0 -435z"/>
<path d="M2820 2550 l0 -440 149 0 c81 0 169 -3 195 -6 l47 -7 -3 74 c-3 71
-4 74 -28 76 -14 1 -64 5 -112 8 l-88 7 0 364 0 364 -80 0 -80 0 0 -440z"/>
<path d="M3437 2968 c-3 -13 -31 -156 -61 -318 -31 -162 -67 -351 -80 -420
-14 -69 -24 -125 -23 -126 1 -1 36 -3 77 -5 l74 -4 8 35 c4 19 10 56 13 83 l6
47 88 0 89 0 5 -32 c3 -18 9 -54 12 -79 4 -25 10 -50 13 -56 4 -5 42 -13 85
-16 71 -6 78 -5 73 11 -6 18 -121 621 -153 797 l-18 100 -102 3 c-98 3 -101 2
-106 -20z m132 -338 c12 -74 24 -154 27 -177 l5 -43 -61 0 c-70 0 -69 -3 -46
126 8 44 20 116 26 162 7 46 16 80 20 75 4 -4 17 -69 29 -143z"/>
<path d="M3892 2613 c3 -360 4 -380 24 -424 26 -57 85 -114 133 -131 20 -7 65
-12 101 -13 105 0 175 53 212 159 15 45 17 94 18 419 l0 367 -75 0 -75 0 0
-348 c0 -192 -4 -362 -10 -381 -5 -18 -17 -39 -27 -47 -27 -20 -86 -17 -117 7
l-26 20 0 375 0 374 -80 0 -81 0 3 -377z"/>
</g>
</svg>
